<mxfile host="app.diagrams.net" modified="2024-03-08T09:26:33.065Z" agent="Mozilla/5.0 (Windows NT 10.0; Win64; x64) AppleWebKit/537.36 (KHTML, like Gecko) Chrome/122.0.0.0 Safari/537.36" etag="0ptUls8N0fe2x5fpBiU2" version="24.0.2" type="github">
  <diagram name="Page-1" id="J35sRBXo90A8_cbNqQOU">
    <mxGraphModel dx="1843" dy="558" grid="1" gridSize="10" guides="1" tooltips="1" connect="1" arrows="1" fold="1" page="1" pageScale="1" pageWidth="850" pageHeight="1100" math="0" shadow="0">
      <root>
        <mxCell id="0" />
        <mxCell id="1" parent="0" />
        <mxCell id="WPeFzwkXg94GIZhLmHgt-10" value="&lt;p style=&quot;margin:0px;margin-top:4px;text-align:center;&quot;&gt;&lt;span style=&quot;font-weight: 700;&quot;&gt;User&lt;/span&gt;&lt;br&gt;&lt;/p&gt;&lt;hr size=&quot;1&quot; style=&quot;border-style:solid;&quot;&gt;&lt;p style=&quot;margin:0px;margin-left:4px;&quot;&gt;- username: String&lt;br&gt;&lt;/p&gt;&lt;p style=&quot;margin:0px;margin-left:4px;&quot;&gt;- password: String&lt;br&gt;&lt;/p&gt;&lt;p style=&quot;margin:0px;margin-left:4px;&quot;&gt;- locationInfo: String&lt;/p&gt;&lt;hr size=&quot;1&quot; style=&quot;border-style:solid;&quot;&gt;&lt;p style=&quot;margin:0px;margin-left:4px;&quot;&gt;+ scanQRCode(void): void&lt;/p&gt;" style="verticalAlign=top;align=left;overflow=fill;html=1;whiteSpace=wrap;" parent="1" vertex="1">
          <mxGeometry x="330" y="560" width="180" height="110" as="geometry" />
        </mxCell>
        <mxCell id="WPeFzwkXg94GIZhLmHgt-22" style="edgeStyle=orthogonalEdgeStyle;rounded=0;orthogonalLoop=1;jettySize=auto;html=1;exitX=0.5;exitY=0;exitDx=0;exitDy=0;endArrow=block;endFill=0;entryX=0.5;entryY=1;entryDx=0;entryDy=0;" parent="1" source="WPeFzwkXg94GIZhLmHgt-15" target="WPeFzwkXg94GIZhLmHgt-10" edge="1">
          <mxGeometry relative="1" as="geometry">
            <mxPoint x="400" y="680" as="targetPoint" />
            <Array as="points">
              <mxPoint x="210" y="725" />
              <mxPoint x="210" y="710" />
              <mxPoint x="420" y="710" />
            </Array>
          </mxGeometry>
        </mxCell>
        <mxCell id="WPeFzwkXg94GIZhLmHgt-15" value="&lt;p style=&quot;margin:0px;margin-top:4px;text-align:center;&quot;&gt;&lt;b&gt;Organizer&lt;/b&gt;&lt;/p&gt;&lt;hr size=&quot;1&quot; style=&quot;border-style:solid;&quot;&gt;&lt;p style=&quot;margin:0px;margin-left:4px;&quot;&gt;+ field: Type&lt;/p&gt;&lt;hr size=&quot;1&quot; style=&quot;border-style:solid;&quot;&gt;&lt;p style=&quot;margin:0px;margin-left:4px;&quot;&gt;+ createdNewEvent(): void&lt;/p&gt;&lt;p style=&quot;margin:0px;margin-left:4px;&quot;&gt;+ sendNotification(): void&lt;/p&gt;&lt;p style=&quot;margin:0px;margin-left:4px;&quot;&gt;+ viewMyEvent(event: Event): void&lt;/p&gt;&lt;p style=&quot;margin:0px;margin-left:4px;&quot;&gt;+ trackAttendence(event: Event): void&lt;/p&gt;" style="verticalAlign=top;align=left;overflow=fill;html=1;whiteSpace=wrap;" parent="1" vertex="1">
          <mxGeometry x="100" y="740" width="220" height="120" as="geometry" />
        </mxCell>
        <mxCell id="WPeFzwkXg94GIZhLmHgt-20" style="edgeStyle=orthogonalEdgeStyle;rounded=0;orthogonalLoop=1;jettySize=auto;html=1;exitX=0.5;exitY=0;exitDx=0;exitDy=0;entryX=0.5;entryY=1;entryDx=0;entryDy=0;endArrow=block;endFill=0;" parent="1" source="WPeFzwkXg94GIZhLmHgt-16" target="WPeFzwkXg94GIZhLmHgt-10" edge="1">
          <mxGeometry relative="1" as="geometry" />
        </mxCell>
        <mxCell id="WPeFzwkXg94GIZhLmHgt-16" value="&lt;p style=&quot;margin:0px;margin-top:4px;text-align:center;&quot;&gt;&lt;span style=&quot;font-weight: 700;&quot;&gt;Administrator&lt;/span&gt;&lt;br&gt;&lt;/p&gt;&lt;hr size=&quot;1&quot; style=&quot;border-style:solid;&quot;&gt;&lt;p style=&quot;margin:0px;margin-left:4px;&quot;&gt;- profiles: ArrayList&amp;lt;Profile&amp;gt;&lt;/p&gt;&lt;hr size=&quot;1&quot; style=&quot;border-style:solid;&quot;&gt;&lt;p style=&quot;margin:0px;margin-left:4px;&quot;&gt;+ searchProfile(profileNum: String): void&lt;br&gt;&lt;/p&gt;&lt;p style=&quot;margin:0px;margin-left:4px;&quot;&gt;+ editProfile(profile:Profile): void&lt;br&gt;&lt;/p&gt;" style="verticalAlign=top;align=left;overflow=fill;html=1;whiteSpace=wrap;" parent="1" vertex="1">
          <mxGeometry x="340" y="740" width="160" height="120" as="geometry" />
        </mxCell>
        <mxCell id="WPeFzwkXg94GIZhLmHgt-23" style="edgeStyle=orthogonalEdgeStyle;rounded=0;orthogonalLoop=1;jettySize=auto;html=1;entryX=0.5;entryY=1;entryDx=0;entryDy=0;endArrow=block;endFill=0;" parent="1" source="WPeFzwkXg94GIZhLmHgt-17" target="WPeFzwkXg94GIZhLmHgt-10" edge="1">
          <mxGeometry relative="1" as="geometry">
            <Array as="points">
              <mxPoint x="600" y="710" />
              <mxPoint x="420" y="710" />
            </Array>
          </mxGeometry>
        </mxCell>
        <mxCell id="WPeFzwkXg94GIZhLmHgt-17" value="&lt;p style=&quot;margin:0px;margin-top:4px;text-align:center;&quot;&gt;&lt;b&gt;Attendee&lt;/b&gt;&lt;/p&gt;&lt;hr size=&quot;1&quot; style=&quot;border-style:solid;&quot;&gt;&lt;p style=&quot;margin:0px;margin-left:4px;&quot;&gt;- events: ArrayList&amp;lt;Event&amp;gt;&lt;/p&gt;&lt;p style=&quot;margin:0px;margin-left:4px;&quot;&gt;- db: FirebaseFirestore&lt;/p&gt;&lt;hr size=&quot;1&quot; style=&quot;border-style:solid;&quot;&gt;&lt;p style=&quot;margin:0px;margin-left:4px;&quot;&gt;+ setNotification(): void&lt;/p&gt;&lt;p style=&quot;margin:0px;margin-left:4px;&quot;&gt;+ browseEvent(): void&lt;/p&gt;" style="verticalAlign=top;align=left;overflow=fill;html=1;whiteSpace=wrap;" parent="1" vertex="1">
          <mxGeometry x="540" y="740" width="160" height="100" as="geometry" />
        </mxCell>
        <mxCell id="WPeFzwkXg94GIZhLmHgt-24" style="edgeStyle=orthogonalEdgeStyle;rounded=0;orthogonalLoop=1;jettySize=auto;html=1;exitX=0.5;exitY=1;exitDx=0;exitDy=0;entryX=0;entryY=0.25;entryDx=0;entryDy=0;endArrow=none;endFill=0;" parent="1" source="WPeFzwkXg94GIZhLmHgt-18" target="WPeFzwkXg94GIZhLmHgt-10" edge="1">
          <mxGeometry relative="1" as="geometry">
            <Array as="points">
              <mxPoint x="290" y="588" />
            </Array>
          </mxGeometry>
        </mxCell>
        <mxCell id="WPeFzwkXg94GIZhLmHgt-18" value="&lt;p style=&quot;margin:0px;margin-top:4px;text-align:center;&quot;&gt;&lt;b&gt;Event&lt;/b&gt;&lt;/p&gt;&lt;hr size=&quot;1&quot; style=&quot;border-style:solid;&quot;&gt;&lt;p style=&quot;margin:0px;margin-left:4px;&quot;&gt;- poster: Image&lt;/p&gt;&lt;p style=&quot;margin:0px;margin-left:4px;&quot;&gt;- QRCode: Image&lt;br&gt;&lt;/p&gt;&lt;p style=&quot;margin:0px;margin-left:4px;&quot;&gt;- attendees: ArrayList&amp;lt;Attendee&amp;gt;&lt;br&gt;&lt;/p&gt;&lt;hr size=&quot;1&quot; style=&quot;border-style:solid;&quot;&gt;&lt;p style=&quot;margin:0px;margin-left:4px;&quot;&gt;+ checkIn(attendee: Attendee): void&lt;/p&gt;&lt;p style=&quot;margin:0px;margin-left:4px;&quot;&gt;+ setPoster(poster: Image): void&lt;/p&gt;&lt;p style=&quot;margin:0px;margin-left:4px;&quot;&gt;+ setQRCode(QRCode: Image): void&lt;br&gt;&lt;/p&gt;&lt;p style=&quot;margin:0px;margin-left:4px;&quot;&gt;+ getPoster(): Image&lt;/p&gt;&lt;p style=&quot;margin:0px;margin-left:4px;&quot;&gt;+ getQRCode(): Image&lt;/p&gt;&lt;p style=&quot;margin:0px;margin-left:4px;&quot;&gt;+ getAttendees(): ArrayList&amp;lt;Attendee&amp;gt;&lt;/p&gt;" style="verticalAlign=top;align=left;overflow=fill;html=1;whiteSpace=wrap;" parent="1" vertex="1">
          <mxGeometry x="150" y="290" width="240" height="180" as="geometry" />
        </mxCell>
        <mxCell id="WPeFzwkXg94GIZhLmHgt-25" style="edgeStyle=orthogonalEdgeStyle;rounded=0;orthogonalLoop=1;jettySize=auto;html=1;exitX=0.5;exitY=1;exitDx=0;exitDy=0;entryX=1;entryY=0.25;entryDx=0;entryDy=0;endArrow=none;endFill=0;" parent="1" source="WPeFzwkXg94GIZhLmHgt-19" target="WPeFzwkXg94GIZhLmHgt-10" edge="1">
          <mxGeometry relative="1" as="geometry">
            <Array as="points">
              <mxPoint x="670" y="600" />
              <mxPoint x="510" y="600" />
            </Array>
          </mxGeometry>
        </mxCell>
        <mxCell id="WPeFzwkXg94GIZhLmHgt-19" value="&lt;p style=&quot;margin:0px;margin-top:4px;text-align:center;&quot;&gt;&lt;b&gt;Profile&lt;/b&gt;&lt;/p&gt;&lt;hr size=&quot;1&quot; style=&quot;border-style:solid;&quot;&gt;&lt;p style=&quot;margin:0px;margin-left:4px;&quot;&gt;- name: String&lt;/p&gt;&lt;p style=&quot;margin:0px;margin-left:4px;&quot;&gt;- profilePictureURL: String&lt;/p&gt;&lt;p style=&quot;margin:0px;margin-left:4px;&quot;&gt;- email: String&lt;/p&gt;&lt;p style=&quot;margin:0px;margin-left:4px;&quot;&gt;- phoneNumber: String&lt;/p&gt;&lt;hr size=&quot;1&quot; style=&quot;border-style:solid;&quot;&gt;&lt;p style=&quot;margin:0px;margin-left:4px;&quot;&gt;+ getName(): String&lt;/p&gt;&lt;p style=&quot;margin:0px;margin-left:4px;&quot;&gt;+ setName(name:&amp;nbsp;&lt;span style=&quot;background-color: initial;&quot;&gt;String&lt;/span&gt;&lt;span style=&quot;background-color: initial;&quot;&gt;): void&lt;/span&gt;&lt;/p&gt;&lt;p style=&quot;margin:0px;margin-left:4px;&quot;&gt;+ getProfilePictureURL(): String&lt;br&gt;&lt;/p&gt;&lt;p style=&quot;margin:0px;margin-left:4px;&quot;&gt;+ setProfilePictureURL(profilePictureURL:&amp;nbsp;&lt;span style=&quot;background-color: initial;&quot;&gt;String&lt;/span&gt;&lt;span style=&quot;background-color: initial;&quot;&gt;): void&lt;/span&gt;&lt;/p&gt;&lt;p style=&quot;margin: 0px 0px 0px 4px;&quot;&gt;+ getEmail(): String&lt;/p&gt;&lt;p style=&quot;margin: 0px 0px 0px 4px;&quot;&gt;+ setEmail(email:&amp;nbsp;&lt;span style=&quot;background-color: initial;&quot;&gt;String&lt;/span&gt;&lt;span style=&quot;background-color: initial;&quot;&gt;): void&lt;/span&gt;&lt;/p&gt;&lt;p style=&quot;margin: 0px 0px 0px 4px;&quot;&gt;+ getPhoneNumber(): String&lt;/p&gt;&lt;p style=&quot;margin: 0px 0px 0px 4px;&quot;&gt;+ setPhoneNumber(phoneNumber:&amp;nbsp;&lt;span style=&quot;background-color: initial;&quot;&gt;String&lt;/span&gt;&lt;span style=&quot;background-color: initial;&quot;&gt;): void&lt;/span&gt;&lt;/p&gt;" style="verticalAlign=top;align=left;overflow=fill;html=1;whiteSpace=wrap;" parent="1" vertex="1">
          <mxGeometry x="470" y="260" width="320" height="220" as="geometry" />
        </mxCell>
        <mxCell id="WPeFzwkXg94GIZhLmHgt-28" value="0...*" style="text;html=1;align=center;verticalAlign=middle;resizable=0;points=[];autosize=1;strokeColor=none;fillColor=none;" parent="1" vertex="1">
          <mxGeometry x="250" y="470" width="40" height="30" as="geometry" />
        </mxCell>
        <mxCell id="WPeFzwkXg94GIZhLmHgt-29" value="1...*" style="text;html=1;align=center;verticalAlign=middle;resizable=0;points=[];autosize=1;strokeColor=none;fillColor=none;" parent="1" vertex="1">
          <mxGeometry x="290" y="588" width="40" height="30" as="geometry" />
        </mxCell>
        <mxCell id="WPeFzwkXg94GIZhLmHgt-30" value="1...*" style="text;html=1;align=center;verticalAlign=middle;resizable=0;points=[];autosize=1;strokeColor=none;fillColor=none;" parent="1" vertex="1">
          <mxGeometry x="620" y="490" width="40" height="30" as="geometry" />
        </mxCell>
        <mxCell id="WPeFzwkXg94GIZhLmHgt-31" value="1" style="text;html=1;align=center;verticalAlign=middle;resizable=0;points=[];autosize=1;strokeColor=none;fillColor=none;" parent="1" vertex="1">
          <mxGeometry x="510" y="570" width="30" height="30" as="geometry" />
        </mxCell>
        <mxCell id="WPeFzwkXg94GIZhLmHgt-32" value="&lt;p style=&quot;margin:0px;margin-top:4px;text-align:center;&quot;&gt;&lt;b&gt;QRCodeGenerator&lt;/b&gt;&lt;/p&gt;&lt;hr size=&quot;1&quot; style=&quot;border-style:solid;&quot;&gt;&lt;p style=&quot;margin:0px;margin-left:4px;&quot;&gt;+ field: Type&lt;br&gt;&lt;/p&gt;&lt;hr size=&quot;1&quot; style=&quot;border-style:solid;&quot;&gt;&lt;p style=&quot;margin:0px;margin-left:4px;&quot;&gt;+ generateCheckInQRCode(): String&lt;/p&gt;&lt;p style=&quot;margin:0px;margin-left:4px;&quot;&gt;+ generatePromotionQRCode(): String&lt;br&gt;&lt;/p&gt;" style="verticalAlign=top;align=left;overflow=fill;html=1;whiteSpace=wrap;" parent="1" vertex="1">
          <mxGeometry x="20" y="570" width="240" height="90" as="geometry" />
        </mxCell>
        <mxCell id="WPeFzwkXg94GIZhLmHgt-33" value="&lt;p style=&quot;margin:0px;margin-top:4px;text-align:center;&quot;&gt;&lt;i&gt;&amp;lt;&amp;lt;Interface&amp;gt;&amp;gt;&lt;/i&gt;&lt;br&gt;&lt;b&gt;CheckInSystem&lt;/b&gt;&lt;/p&gt;&lt;hr size=&quot;1&quot; style=&quot;border-style:solid;&quot;&gt;&lt;p style=&quot;margin:0px;margin-left:4px;&quot;&gt;+ field1: Type&lt;br&gt;+ field2: Type&lt;/p&gt;&lt;hr size=&quot;1&quot; style=&quot;border-style:solid;&quot;&gt;&lt;p style=&quot;margin:0px;margin-left:4px;&quot;&gt;+ recignizeQRCode(QRCode: String): void&lt;br&gt;&lt;/p&gt;" style="verticalAlign=top;align=left;overflow=fill;html=1;whiteSpace=wrap;" parent="1" vertex="1">
          <mxGeometry x="45" y="80" width="190" height="140" as="geometry" />
        </mxCell>
        <mxCell id="WPeFzwkXg94GIZhLmHgt-34" value="&lt;p style=&quot;margin:0px;margin-top:4px;text-align:center;&quot;&gt;&lt;i&gt;&amp;lt;&amp;lt;Interface&amp;gt;&amp;gt;&lt;/i&gt;&lt;br&gt;&lt;b&gt;LocationTracking&lt;/b&gt;&lt;/p&gt;&lt;hr size=&quot;1&quot; style=&quot;border-style:solid;&quot;&gt;&lt;p style=&quot;margin:0px;margin-left:4px;&quot;&gt;+ field1: Type&lt;br&gt;+ field2: Type&lt;/p&gt;&lt;hr size=&quot;1&quot; style=&quot;border-style:solid;&quot;&gt;&lt;p style=&quot;margin:0px;margin-left:4px;&quot;&gt;+ getLocation(user: User): String&lt;/p&gt;&lt;p style=&quot;margin:0px;margin-left:4px;&quot;&gt;+ method2(Type, Type): Type&lt;/p&gt;" style="verticalAlign=top;align=left;overflow=fill;html=1;whiteSpace=wrap;" parent="1" vertex="1">
          <mxGeometry x="-240" y="430" width="190" height="140" as="geometry" />
        </mxCell>
        <mxCell id="WPeFzwkXg94GIZhLmHgt-35" value="&lt;p style=&quot;margin:0px;margin-top:4px;text-align:center;&quot;&gt;&lt;b&gt;Database&lt;/b&gt;&lt;/p&gt;&lt;hr size=&quot;1&quot; style=&quot;border-style:solid;&quot;&gt;&lt;p style=&quot;margin:0px;margin-left:4px;&quot;&gt;+ field: Type&lt;/p&gt;&lt;hr size=&quot;1&quot; style=&quot;border-style:solid;&quot;&gt;&lt;p style=&quot;margin:0px;margin-left:4px;&quot;&gt;+ addEntry(collectionName: String, key: String, value: HashMap&amp;lt;String, String&amp;gt;): void&lt;/p&gt;&lt;p style=&quot;margin:0px;margin-left:4px;&quot;&gt;+ changeEntry(collectionName: String, key: String, value: HashMap&amp;lt;String, String&amp;gt;): void&lt;br&gt;&lt;/p&gt;&lt;p style=&quot;margin:0px;margin-left:4px;&quot;&gt;&lt;br&gt;&lt;/p&gt;" style="verticalAlign=top;align=left;overflow=fill;html=1;whiteSpace=wrap;" parent="1" vertex="1">
          <mxGeometry x="760" y="600" width="250" height="120" as="geometry" />
        </mxCell>
        <mxCell id="i9NQ23__nChv1Pb4dPMh-4" style="edgeStyle=orthogonalEdgeStyle;rounded=0;orthogonalLoop=1;jettySize=auto;html=1;exitX=0.5;exitY=1;exitDx=0;exitDy=0;endArrow=block;endFill=0;dashed=1;" edge="1" parent="1" source="i9NQ23__nChv1Pb4dPMh-5" target="i9NQ23__nChv1Pb4dPMh-2">
          <mxGeometry relative="1" as="geometry" />
        </mxCell>
        <mxCell id="i9NQ23__nChv1Pb4dPMh-1" value="&lt;p style=&quot;margin:0px;margin-top:4px;text-align:center;&quot;&gt;&lt;b&gt;CreateEventFrag&lt;/b&gt;&lt;/p&gt;&lt;hr size=&quot;1&quot; style=&quot;border-style:solid;&quot;&gt;&lt;p style=&quot;margin:0px;margin-left:4px;&quot;&gt;+ pickMedia: ActivityResultLauncher&amp;lt;PickVisualMediaRequest&amp;gt;&lt;/p&gt;&lt;p style=&quot;margin:0px;margin-left:4px;&quot;&gt;+ upload: Button&lt;/p&gt;&lt;p style=&quot;margin:0px;margin-left:4px;&quot;&gt;+ image: ImageView&lt;/p&gt;&lt;p style=&quot;margin:0px;margin-left:4px;&quot;&gt;+ toolbar: Toolbar&lt;/p&gt;&lt;p style=&quot;margin:0px;margin-left:4px;&quot;&gt;+ imageuri: Uri&lt;/p&gt;&lt;p style=&quot;margin:0px;margin-left:4px;&quot;&gt;+ listener: CreateEventFragListener&lt;/p&gt;&lt;hr size=&quot;1&quot; style=&quot;border-style:solid;&quot;&gt;&lt;p style=&quot;margin:0px;margin-left:4px;&quot;&gt;+ newInstance(): CreateEventFrag&lt;/p&gt;" style="verticalAlign=top;align=left;overflow=fill;html=1;whiteSpace=wrap;" vertex="1" parent="1">
          <mxGeometry x="20" y="880" width="350" height="160" as="geometry" />
        </mxCell>
        <mxCell id="i9NQ23__nChv1Pb4dPMh-2" value="&lt;p style=&quot;margin:0px;margin-top:4px;text-align:center;&quot;&gt;&lt;i&gt;&amp;lt;&amp;lt;Interface&amp;gt;&amp;gt;&lt;/i&gt;&lt;br&gt;&lt;b&gt;CreateEventFragListener&lt;/b&gt;&lt;/p&gt;&lt;hr size=&quot;1&quot; style=&quot;border-style:solid;&quot;&gt;&lt;p style=&quot;margin:0px;margin-left:4px;&quot;&gt;+ field: Type&lt;br&gt;&lt;/p&gt;&lt;hr size=&quot;1&quot; style=&quot;border-style:solid;&quot;&gt;&lt;p style=&quot;margin:0px;margin-left:4px;&quot;&gt;+ notifyShutDown(frag: CreateEventFrag): void&lt;br&gt;&lt;/p&gt;" style="verticalAlign=top;align=left;overflow=fill;html=1;whiteSpace=wrap;" vertex="1" parent="1">
          <mxGeometry x="-250" y="910" width="260" height="100" as="geometry" />
        </mxCell>
        <mxCell id="i9NQ23__nChv1Pb4dPMh-3" style="edgeStyle=orthogonalEdgeStyle;rounded=0;orthogonalLoop=1;jettySize=auto;html=1;exitX=0.5;exitY=0;exitDx=0;exitDy=0;entryX=0.43;entryY=1;entryDx=0;entryDy=0;entryPerimeter=0;endArrow=diamond;endFill=0;" edge="1" parent="1" source="i9NQ23__nChv1Pb4dPMh-1" target="WPeFzwkXg94GIZhLmHgt-15">
          <mxGeometry relative="1" as="geometry" />
        </mxCell>
        <mxCell id="i9NQ23__nChv1Pb4dPMh-6" style="edgeStyle=orthogonalEdgeStyle;rounded=0;orthogonalLoop=1;jettySize=auto;html=1;entryX=0;entryY=0.5;entryDx=0;entryDy=0;endArrow=diamond;endFill=0;" edge="1" parent="1" source="i9NQ23__nChv1Pb4dPMh-5" target="WPeFzwkXg94GIZhLmHgt-15">
          <mxGeometry relative="1" as="geometry" />
        </mxCell>
        <mxCell id="i9NQ23__nChv1Pb4dPMh-5" value="&lt;p style=&quot;margin:0px;margin-top:4px;text-align:center;&quot;&gt;&lt;b&gt;OrganizerDashboard&lt;/b&gt;&lt;br&gt;&lt;/p&gt;&lt;hr size=&quot;1&quot; style=&quot;border-style:solid;&quot;&gt;&lt;p style=&quot;margin:0px;margin-left:4px;&quot;&gt;- organizer: Organizer&lt;/p&gt;&lt;p style=&quot;margin:0px;margin-left:4px;&quot;&gt;+ dashboard: View&lt;/p&gt;&lt;p style=&quot;margin:0px;margin-left:4px;&quot;&gt;+ createEventContainer&lt;/p&gt;&lt;hr size=&quot;1&quot; style=&quot;border-style:solid;&quot;&gt;&lt;p style=&quot;margin:0px;margin-left:4px;&quot;&gt;+ notifyShutDown&lt;span style=&quot;background-color: initial;&quot;&gt;(frag: CreateEventFrag): void&lt;/span&gt;&lt;/p&gt;" style="verticalAlign=top;align=left;overflow=fill;html=1;whiteSpace=wrap;" vertex="1" parent="1">
          <mxGeometry x="-200" y="742.5" width="160" height="115" as="geometry" />
        </mxCell>
        <mxCell id="i9NQ23__nChv1Pb4dPMh-8" style="edgeStyle=orthogonalEdgeStyle;rounded=0;orthogonalLoop=1;jettySize=auto;html=1;endArrow=diamond;endFill=0;entryX=0.75;entryY=0;entryDx=0;entryDy=0;" edge="1" parent="1" source="i9NQ23__nChv1Pb4dPMh-7" target="WPeFzwkXg94GIZhLmHgt-19">
          <mxGeometry relative="1" as="geometry">
            <Array as="points">
              <mxPoint x="710" y="210" />
              <mxPoint x="710" y="210" />
            </Array>
          </mxGeometry>
        </mxCell>
        <mxCell id="i9NQ23__nChv1Pb4dPMh-7" value="&lt;p style=&quot;margin:0px;margin-top:4px;text-align:center;&quot;&gt;&lt;b&gt;EditProfileFragment&lt;/b&gt;&lt;/p&gt;&lt;hr size=&quot;1&quot; style=&quot;border-style:solid;&quot;&gt;&lt;p style=&quot;margin:0px;margin-left:4px;&quot;&gt;- name: EditText&lt;/p&gt;&lt;p style=&quot;margin:0px;margin-left:4px;&quot;&gt;- pictureURL: EditText&lt;/p&gt;&lt;p style=&quot;margin:0px;margin-left:4px;&quot;&gt;- email: EditText&lt;/p&gt;&lt;p style=&quot;margin:0px;margin-left:4px;&quot;&gt;- phoneNumber: EditText&lt;/p&gt;&lt;p style=&quot;margin:0px;margin-left:4px;&quot;&gt;- listener: OnFragmentInteractionListener&lt;/p&gt;&lt;p style=&quot;margin:0px;margin-left:4px;&quot;&gt;- profile: Profile&lt;/p&gt;&lt;hr size=&quot;1&quot; style=&quot;border-style:solid;&quot;&gt;&lt;p style=&quot;margin:0px;margin-left:4px;&quot;&gt;+ EditProfileFragment(aprofile: Profile): void&lt;/p&gt;" style="verticalAlign=top;align=left;overflow=fill;html=1;whiteSpace=wrap;" vertex="1" parent="1">
          <mxGeometry x="615" y="10" width="175" height="200" as="geometry" />
        </mxCell>
        <mxCell id="i9NQ23__nChv1Pb4dPMh-10" style="edgeStyle=orthogonalEdgeStyle;rounded=0;orthogonalLoop=1;jettySize=auto;html=1;dashed=1;endArrow=block;endFill=0;" edge="1" parent="1" source="WPeFzwkXg94GIZhLmHgt-10" target="i9NQ23__nChv1Pb4dPMh-9">
          <mxGeometry relative="1" as="geometry">
            <mxPoint x="510" y="890" as="targetPoint" />
          </mxGeometry>
        </mxCell>
        <mxCell id="i9NQ23__nChv1Pb4dPMh-9" value="&lt;p style=&quot;margin:0px;margin-top:4px;text-align:center;&quot;&gt;&lt;i&gt;&amp;lt;&amp;lt;Interface&amp;gt;&amp;gt;&lt;/i&gt;&lt;br&gt;&lt;b&gt;OnFragmentInteractionListener&lt;/b&gt;&lt;/p&gt;&lt;hr size=&quot;1&quot; style=&quot;border-style:solid;&quot;&gt;&lt;p style=&quot;margin:0px;margin-left:4px;&quot;&gt;+ field: Type&lt;br&gt;&lt;/p&gt;&lt;hr size=&quot;1&quot; style=&quot;border-style:solid;&quot;&gt;&lt;p style=&quot;margin:0px;margin-left:4px;&quot;&gt;+ onConfirmedPressed(newprofile: Profile): void&lt;br&gt;&lt;/p&gt;" style="verticalAlign=top;align=left;overflow=fill;html=1;whiteSpace=wrap;" vertex="1" parent="1">
          <mxGeometry x="290" y="80" width="260" height="90" as="geometry" />
        </mxCell>
      </root>
    </mxGraphModel>
  </diagram>
</mxfile>
